# Blender 4.3.2
# www.blender.org
mtllib half_selection.mtl
o Seleciton
v 0.000000 0.000000 0.358586
v -0.020237 -0.020237 0.358586
v 0.000000 0.000000 -0.358586
v -0.020237 -0.020237 -0.358586
v 0.500000 0.000000 0.358586
v 0.529630 -0.012273 0.358586
v 0.000000 0.500000 0.358586
v -0.012273 0.529630 0.358586
v 0.500000 0.000000 -0.358586
v 0.529630 -0.012273 -0.358586
v 0.000000 0.500000 -0.358586
v -0.012273 0.529630 -0.358586
v -0.010119 0.000000 0.348467
v -0.010119 -0.010119 0.372896
v -0.006137 0.514815 0.374622
v -0.006137 0.503476 0.347247
v -0.006137 0.503476 -0.347247
v -0.006137 0.514815 -0.374622
v -0.010119 -0.010119 -0.372896
v -0.010119 0.000000 -0.348467
v 0.506797 0.001881 -0.347247
v 0.514815 -0.006137 -0.374622
v 0.001881 0.506797 -0.347247
v 0.001881 0.506797 0.347247
v 0.514815 -0.006137 0.374622
v 0.506797 0.001881 0.347247
v 0.000000 -0.010119 -0.348467
v 0.503476 -0.006137 -0.347247
v 0.503476 -0.006137 0.347247
v 0.000000 -0.010119 0.348467
vn 0.7968 -0.0039 -0.6042
vn -0.7960 0.0083 -0.6053
vn 0.8812 -0.0042 0.4727
vn -0.8809 0.0090 0.4733
vn -0.4929 -0.8701 -0.0000
vn -0.9736 -0.2284 -0.0000
vn 0.7968 -0.0039 0.6042
vn -0.7960 0.0083 0.6053
vn 0.8812 -0.0042 -0.4727
vn -0.8809 0.0090 -0.4733
vn -0.0000 1.0000 -0.0000
vn -0.8944 0.4472 -0.0000
vn -0.6219 -0.6219 0.4760
vn 0.6219 0.6219 0.4760
vn -0.6604 -0.6604 -0.3574
vn 0.6604 0.6604 -0.3574
vn 0.9638 -0.2667 -0.0000
vn 0.8499 0.5269 -0.0000
vn -0.6219 -0.6219 -0.4760
vn 0.6219 0.6219 -0.4760
vn -0.6604 -0.6604 0.3574
vn 0.6604 0.6604 0.3574
vn -0.2667 0.9638 -0.0000
vn 0.5269 0.8499 -0.0000
vn -0.0039 0.7968 0.6042
vn 0.0083 -0.7960 0.6053
vn -0.0042 0.8812 -0.4727
vn 0.0090 -0.8809 -0.4733
vn -0.8701 -0.4929 -0.0000
vn -0.2284 -0.9736 -0.0000
vn -0.0039 0.7968 -0.6042
vn 0.0083 -0.7960 -0.6053
vn -0.0042 0.8812 0.4727
vn 0.0090 -0.8809 0.4733
vn 1.0000 -0.0000 -0.0000
vn 0.4472 -0.8944 -0.0000
vt 0.125000 0.750000
vt 0.625000 0.750000
vt 0.625000 0.500000
vt 0.125000 0.500000
vt 0.375000 0.500000
vt 0.375000 0.750000
s 0
usemtl Selection
f 13/1/1 16/2/1 7/2/1 1/1/1
f 16/2/2 13/1/2 2/1/2 8/2/2
f 15/2/3 14/1/3 1/1/3 7/2/3
f 14/1/4 15/2/4 8/2/4 2/1/4
f 16/2/5 17/3/5 11/3/5 7/2/5
f 17/3/6 16/2/6 8/2/6 12/3/6
f 17/3/7 20/4/7 3/4/7 11/3/7
f 20/4/8 17/3/8 12/3/8 4/4/8
f 19/4/9 18/3/9 11/3/9 3/4/9
f 18/3/10 19/4/10 4/4/10 12/3/10
f 20/4/11 13/1/11 1/1/11 3/4/11
f 13/1/12 20/4/12 4/4/12 2/1/12
f 21/5/13 23/3/13 11/3/13 9/5/13
f 23/3/14 21/5/14 10/5/14 12/3/14
f 18/3/15 22/5/15 9/5/15 11/3/15
f 22/5/16 18/3/16 12/3/16 10/5/16
f 23/3/17 24/2/17 7/2/17 11/3/17
f 24/2/18 23/3/18 12/3/18 8/2/18
f 24/2/19 26/6/19 5/6/19 7/2/19
f 26/6/20 24/2/20 8/2/20 6/6/20
f 25/6/21 15/2/21 7/2/21 5/6/21
f 15/2/22 25/6/22 6/6/22 8/2/22
f 26/6/23 21/5/23 9/5/23 5/6/23
f 21/5/24 26/6/24 6/6/24 10/5/24
f 27/4/25 28/5/25 9/5/25 3/4/25
f 28/5/26 27/4/26 4/4/26 10/5/26
f 22/5/27 19/4/27 3/4/27 9/5/27
f 19/4/28 22/5/28 10/5/28 4/4/28
f 28/5/29 29/6/29 5/6/29 9/5/29
f 29/6/30 28/5/30 10/5/30 6/6/30
f 29/6/31 30/1/31 1/1/31 5/6/31
f 30/1/32 29/6/32 6/6/32 2/1/32
f 14/1/33 25/6/33 5/6/33 1/1/33
f 25/6/34 14/1/34 2/1/34 6/6/34
f 30/1/35 27/4/35 3/4/35 1/1/35
f 27/4/36 30/1/36 2/1/36 4/4/36
