# Blender 4.2.0
# www.blender.org
mtllib half_selection.mtl
o HalfSelection
v 0.500000 0.000000 0.351053
v 0.515469 -0.006407 0.361992
v 0.500000 0.000000 -0.351053
v 0.515469 -0.006407 -0.361992
v 0.000000 0.500000 0.351053
v -0.006407 0.515469 0.361992
v 0.000000 0.500000 -0.351053
v -0.006407 0.515469 -0.361992
v 0.000000 0.000000 -0.351053
v -0.011547 -0.011547 -0.362600
v 0.000000 0.000000 0.351053
v -0.011547 -0.011547 0.362600
v 0.003867 0.500663 0.346523
v 0.500663 0.003867 0.346523
v 0.500663 0.003867 -0.346523
v 0.003867 0.500663 -0.346523
v 0.483592 0.006796 -0.356523
v 0.004226 0.004226 -0.356827
v 0.006796 0.483592 -0.356523
v 0.004226 -0.005774 -0.346827
v 0.497734 -0.003204 -0.346523
v 0.497734 -0.003204 0.346523
v 0.004226 -0.005774 0.346827
v 0.483592 0.006796 0.356523
v 0.006796 0.483592 0.356523
v 0.004226 0.004226 0.356827
v -0.003204 0.497734 -0.346523
v -0.005774 0.004226 -0.346827
v -0.005774 0.004226 0.346827
v -0.003204 0.497734 0.346523
vn -0.5773 -0.5773 -0.5774
vn 0.6924 0.6924 -0.2028
vn -0.9856 0.1691 -0.0000
vn 0.5701 0.8215 -0.0000
vn -0.5773 -0.5773 0.5774
vn 0.6924 0.6924 0.2028
vn 0.1691 -0.9856 -0.0000
vn 0.8215 0.5701 -0.0000
vn -0.0021 0.7129 0.7012
vn -0.0019 0.3608 -0.9326
vn 0.7129 -0.0021 0.7012
vn 0.3608 -0.0019 -0.9326
vn -0.4433 -0.4433 0.7791
vn -0.2706 -0.2706 -0.9239
vn -0.0020 0.6980 0.7161
vn 0.0070 -0.9610 0.2766
vn -0.8165 0.5774 -0.0000
vn -0.1778 -0.9841 -0.0000
vn -0.0020 0.6980 -0.7161
vn 0.0070 -0.9610 -0.2766
vn 0.8069 0.5907 -0.0000
vn 0.3437 -0.9391 -0.0000
vn -0.4433 -0.4433 -0.7791
vn -0.2706 -0.2706 0.9239
vn 0.7129 -0.0021 -0.7012
vn 0.3608 -0.0019 0.9326
vn -0.0021 0.7129 -0.7012
vn -0.0019 0.3608 0.9326
vn 0.6980 -0.0020 0.7160
vn -0.9610 0.0070 0.2766
vn 0.5907 0.8069 -0.0000
vn -0.9391 0.3437 -0.0000
vn 0.6980 -0.0020 -0.7160
vn -0.9610 0.0070 -0.2766
vn 0.5774 -0.8165 -0.0000
vn -0.9841 -0.1778 -0.0000
vt 0.500000 0.000000
vt 1.000000 0.000000
vt 1.000000 1.000000
vt 0.500000 1.000000
s 0
usemtl Selection
f 13/1/1 14/2/1 1/2/1 5/1/1
f 14/2/2 13/1/2 6/1/2 2/2/2
f 14/2/3 15/3/3 3/3/3 1/2/3
f 15/3/4 14/2/4 2/2/4 4/3/4
f 15/3/5 16/4/5 7/4/5 3/3/5
f 16/4/6 15/3/6 4/3/6 8/4/6
f 16/4/7 13/1/7 5/1/7 7/4/7
f 13/1/8 16/4/8 8/4/8 6/1/8
f 17/3/9 18/4/9 9/4/9 3/3/9
f 18/4/10 17/3/10 4/3/10 10/4/10
f 18/4/11 19/4/11 7/4/11 9/4/11
f 19/4/12 18/4/12 10/4/12 8/4/12
f 19/4/13 17/3/13 3/3/13 7/4/13
f 17/3/14 19/4/14 8/4/14 4/3/14
f 20/4/15 21/3/15 3/3/15 9/4/15
f 21/3/16 20/4/16 10/4/16 4/3/16
f 21/3/17 22/2/17 1/2/17 3/3/17
f 22/2/18 21/3/18 4/3/18 2/2/18
f 22/2/19 23/1/19 11/1/19 1/2/19
f 23/1/20 22/2/20 2/2/20 12/1/20
f 23/1/21 20/4/21 9/4/21 11/1/21
f 20/4/22 23/1/22 12/1/22 10/4/22
f 24/2/23 25/1/23 5/1/23 1/2/23
f 25/1/24 24/2/24 2/2/24 6/1/24
f 25/1/25 26/1/25 11/1/25 5/1/25
f 26/1/26 25/1/26 6/1/26 12/1/26
f 26/1/27 24/2/27 1/2/27 11/1/27
f 24/2/28 26/1/28 12/1/28 2/2/28
f 27/4/29 28/4/29 9/4/29 7/4/29
f 28/4/30 27/4/30 8/4/30 10/4/30
f 28/4/31 29/1/31 11/1/31 9/4/31
f 29/1/32 28/4/32 10/4/32 12/1/32
f 29/1/33 30/1/33 5/1/33 11/1/33
f 30/1/34 29/1/34 12/1/34 6/1/34
f 30/1/35 27/4/35 7/4/35 5/1/35
f 27/4/36 30/1/36 6/1/36 8/4/36
