# Blender 4.2.0
# www.blender.org
mtllib prism.mtl
o OnePrism
v -0.456990 0.000000 0.314738
v -0.467147 0.015268 0.353554
v -0.497948 0.015268 0.332340
v -0.472826 0.004618 0.347476
v -0.491879 0.007329 0.344588
v -0.484535 0.019467 0.347412
v -0.500000 0.005013 0.332340
v -0.000000 0.478407 0.353554
v 0.015400 0.493676 0.332340
v -0.015400 0.493676 0.332340
v 0.010796 0.489111 0.347427
v -0.000000 0.496038 0.344588
v 0.000000 0.500000 0.332340
v -0.010796 0.489111 0.347427
v -0.456990 0.000000 -0.314738
v -0.497948 0.015268 -0.332340
v -0.467147 0.015268 -0.353554
v -0.500000 0.005013 -0.332340
v -0.491879 0.007329 -0.344588
v -0.484535 0.019467 -0.347412
v -0.472826 0.004618 -0.347476
v 0.015400 0.493676 -0.332340
v 0.000000 0.478407 -0.353554
v -0.015400 0.493676 -0.332340
v 0.010796 0.489111 -0.347427
v 0.000000 0.496038 -0.344588
v -0.010796 0.489111 -0.347427
v -0.000000 0.500000 -0.332340
v 0.497948 0.015268 0.332340
v 0.467147 0.015268 0.353554
v 0.456990 0.000000 0.314738
v 0.484535 0.019467 0.347412
v 0.491879 0.007329 0.344588
v 0.472826 0.004618 0.347476
v 0.500000 0.005013 0.332340
v 0.497948 0.015268 -0.332340
v 0.456990 0.000000 -0.314738
v 0.467147 0.015268 -0.353554
v 0.500000 0.005013 -0.332340
v 0.491879 0.007329 -0.344588
v 0.472826 0.004618 -0.347476
v 0.484535 0.019467 -0.347412
vn -0.0000 -0.0000 1.0000
vn 0.7041 0.7101 -0.0000
vn -0.0000 -0.0000 -1.0000
vn -0.7041 0.7101 -0.0000
vn 0.1198 -0.9899 -0.0758
vn 0.0414 -0.8551 0.5168
vn -0.5688 -0.4858 0.6637
vn -0.8721 -0.4876 0.0416
vn 0.0697 0.0373 0.9969
vn -0.4843 0.5553 0.6762
vn -0.7022 0.7057 0.0946
vn -0.0000 -0.1081 0.9941
vn 0.5299 0.4963 0.6876
vn -0.0000 0.8124 0.5831
vn -0.5211 0.4835 0.7033
vn 0.7063 0.7045 0.0696
vn -0.0000 0.9988 0.0488
vn -0.7063 0.7045 0.0695
vn 0.1198 -0.9899 0.0758
vn -0.8211 -0.5700 -0.0278
vn -0.5688 -0.4858 -0.6637
vn 0.0789 -0.7229 -0.6864
vn -0.7022 0.7057 -0.0946
vn -0.4843 0.5553 -0.6762
vn 0.0697 0.0373 -0.9969
vn 0.7063 0.7045 -0.0695
vn 0.5299 0.4963 -0.6876
vn -0.0000 0.8124 -0.5831
vn 0.0026 0.9988 -0.0488
vn -0.0000 -0.1081 -0.9941
vn -0.5299 0.4963 -0.6876
vn -0.7063 0.7045 -0.0696
vn 0.7022 0.7057 0.0946
vn 0.4843 0.5553 0.6762
vn 0.5688 -0.4858 0.6637
vn 0.8191 -0.5730 0.0281
vn -0.0697 0.0373 0.9969
vn -0.0414 -0.8551 0.5168
vn -0.1198 -0.9899 -0.0758
vn 0.7022 0.7057 -0.0946
vn 0.8211 -0.5700 -0.0278
vn 0.5688 -0.4858 -0.6637
vn 0.4906 0.5550 -0.6718
vn -0.1198 -0.9899 0.0758
vn -0.0414 -0.8551 -0.5168
vn -0.0697 0.0373 -0.9969
vn -0.0000 -1.0000 -0.0000
vt 0.617500 0.765000
vt 0.617500 0.992500
vt 0.390000 0.992500
vt 0.632500 0.507500
vt 0.867500 0.507500
vt 0.867500 0.742500
vt 0.632500 0.742500
vt 0.390000 0.257500
vt 0.617500 0.257500
vt 0.617500 0.485000
vt 0.382500 0.007500
vt 0.617500 0.007500
vt 0.617500 0.242500
vt 0.382500 0.242500
vt 0.140000 0.742500
vt 0.144735 0.750000
vt 0.135456 0.750000
vt 0.125000 0.742500
vt 0.386797 1.000000
vt 0.382028 1.000000
vt 0.384867 0.990133
vt 0.375000 0.007500
vt 0.375000 0.003170
vt 0.386797 0.000000
vt 0.625000 0.992500
vt 0.625000 0.996830
vt 0.617500 1.000000
vt 0.875000 0.742500
vt 0.875000 0.746830
vt 0.867500 0.750000
vt 0.617500 0.000000
vt 0.621830 0.000000
vt 0.625000 0.007500
vt 0.140000 0.507500
vt 0.125000 0.507500
vt 0.125000 0.503170
vt 0.144735 0.500000
vt 0.386797 0.250000
vt 0.382028 0.250000
vt 0.375000 0.242500
vt 0.384867 0.259867
vt 0.380228 0.255228
vt 0.867500 0.500000
vt 0.871830 0.500000
vt 0.875000 0.507500
vt 0.617500 0.250000
vt 0.621830 0.250000
vt 0.625000 0.257500
vt 0.625000 0.242500
vt 0.625000 0.246830
vt 0.636797 0.750000
vt 0.632028 0.750000
vt 0.625000 0.742500
vt 0.615133 0.759867
vt 0.619772 0.755228
vt 0.625000 0.761797
vt 0.610000 0.742500
vt 0.625000 0.746830
vt 0.605265 0.750000
vt 0.625000 0.507500
vt 0.625000 0.503170
vt 0.636797 0.500000
vt 0.610000 0.507500
vt 0.605265 0.500000
vt 0.614544 0.500000
vt 0.625000 0.488203
vt 0.625000 0.492972
vt 0.615133 0.490133
s 1
usemtl ErrorPurple
f 30/1/1 8/2/1 2/3/1
f 36/4/2 22/5/2 9/6/2 29/7/2
f 17/8/3 23/9/3 38/10/3
f 3/11/4 10/12/4 24/13/4 16/14/4
f 1/15/5 4/16/6 5/17/7 7/18/8
f 2/3/9 6/19/10 5/20/7 4/21/6
f 3/11/11 7/22/8 5/23/7 6/24/10
f 8/2/12 11/25/13 12/26/14 14/27/15
f 9/6/16 13/28/17 12/29/14 11/30/13
f 10/12/18 14/31/15 12/32/14 13/33/17
f 15/34/19 18/35/20 19/36/21 21/37/22
f 16/14/23 20/38/24 19/39/21 18/40/20
f 17/8/25 21/41/22 19/42/21 20/38/24
f 22/5/26 25/43/27 26/44/28 28/45/29
f 23/9/30 27/46/31 26/47/28 25/48/27
f 24/13/32 28/49/29 26/50/28 27/46/31
f 29/7/33 32/51/34 33/52/35 35/53/36
f 30/1/37 34/54/38 33/55/35 32/56/34
f 31/57/39 35/53/36 33/58/35 34/59/38
f 36/4/40 39/60/41 40/61/42 42/62/43
f 37/63/44 41/64/45 40/65/42 39/60/41
f 38/10/46 42/66/43 40/67/42 41/68/45
f 15/34/19 1/15/5 7/18/8 18/35/20
f 18/40/20 7/22/8 3/11/11 16/14/23
f 2/3/9 8/2/12 14/27/15 6/19/10
f 6/24/10 14/31/15 10/12/18 3/11/11
f 9/6/16 22/5/26 28/45/29 13/28/17
f 13/33/17 28/49/29 24/13/32 10/12/18
f 23/9/30 17/8/25 20/38/24 27/46/31
f 27/46/31 20/38/24 16/14/23 24/13/32
f 22/5/26 36/4/40 42/62/43 25/43/27
f 25/48/27 42/66/43 38/10/46 23/9/30
f 37/63/44 15/34/19 21/37/22 41/64/45
f 41/68/45 21/41/22 17/8/25 38/10/46
f 36/4/40 29/7/33 35/53/36 39/60/41
f 39/60/41 35/53/36 31/57/39 37/63/44
f 1/15/5 31/57/39 34/59/38 4/16/6
f 4/21/6 34/54/38 30/1/37 2/3/9
f 29/7/33 9/6/16 11/30/13 32/51/34
f 32/56/34 11/25/13 8/2/12 30/1/37
usemtl ErrorYellow
f 15/34/47 37/63/47 31/57/47 1/15/47
